<?xml version="1.0" encoding="UTF-8"?>
<svg width="703px" height="443px" viewBox="0 0 703 443" version="1.1" xmlns="http://www.w3.org/2000/svg" xmlns:xlink="http://www.w3.org/1999/xlink">
    <title>Artboard</title>
    <defs>
        <linearGradient x1="100%" y1="0%" x2="0%" y2="100%" id="linearGradient-1">
            <stop stop-color="#32C5FF" offset="0%"></stop>
            <stop stop-color="#B620E0" offset="51.2583893%"></stop>
            <stop stop-color="#F7B500" offset="100%"></stop>
        </linearGradient>
        <circle id="path-2" cx="226" cy="226" r="226"></circle>
        <mask id="mask-3" maskContentUnits="userSpaceOnUse" maskUnits="objectBoundingBox" x="0" y="0" width="452" height="452" fill="white">
            <use xlink:href="#path-2"></use>
        </mask>
        <linearGradient x1="0.00112661484%" y1="49.9976475%" x2="99.9955915%" y2="49.9976475%" id="linearGradient-4">
            <stop stop-color="#CD94EF" offset="0%"></stop>
            <stop stop-color="#7A5BF5" offset="100%"></stop>
        </linearGradient>
        <linearGradient x1="-4.04752683e-06%" y1="50%" x2="100%" y2="50%" id="linearGradient-5">
            <stop stop-color="#4F68CA" offset="0%"></stop>
            <stop stop-color="#5ACEED" offset="100%"></stop>
        </linearGradient>
        <linearGradient x1="0%" y1="49.9999951%" x2="100.000028%" y2="49.9999951%" id="linearGradient-6">
            <stop stop-color="#F87B58" offset="0%"></stop>
            <stop stop-color="#F8C548" offset="50%"></stop>
            <stop stop-color="#F89C51" offset="100%"></stop>
        </linearGradient>
        <linearGradient x1="-3.14110486e-07%" y1="49.9999558%" x2="100%" y2="49.9999558%" id="linearGradient-7">
            <stop stop-color="#E1A1ED" offset="0%"></stop>
            <stop stop-color="#7658F4" offset="100%"></stop>
        </linearGradient>
        <linearGradient x1="-3.38948022e-15%" y1="49.9999852%" x2="100.000015%" y2="49.9999852%" id="linearGradient-8">
            <stop stop-color="#4B44BE" offset="0%"></stop>
            <stop stop-color="#5BD3EF" offset="100%"></stop>
        </linearGradient>
        <linearGradient x1="50%" y1="-0.0829187396%" x2="50%" y2="100%" id="linearGradient-9">
            <stop stop-color="#CD94EF" offset="0%"></stop>
            <stop stop-color="#7A5BF5" offset="100%"></stop>
        </linearGradient>
        <linearGradient x1="21.5161943%" y1="42.4377394%" x2="97.840081%" y2="65.0492153%" id="linearGradient-10">
            <stop stop-color="#CD94EF" offset="0%"></stop>
            <stop stop-color="#7A5BF5" offset="100%"></stop>
        </linearGradient>
        <linearGradient x1="0%" y1="50%" x2="100%" y2="50%" id="linearGradient-11">
            <stop stop-color="#CD94EF" offset="0%"></stop>
            <stop stop-color="#7A5BF5" offset="100%"></stop>
        </linearGradient>
        <linearGradient x1="-0.0071438777%" y1="50%" x2="100%" y2="50%" id="linearGradient-12">
            <stop stop-color="#CD94EF" offset="0%"></stop>
            <stop stop-color="#7A5BF5" offset="100%"></stop>
        </linearGradient>
        <linearGradient x1="0%" y1="49.9853978%" x2="100.000368%" y2="49.9853978%" id="linearGradient-13">
            <stop stop-color="#CD94EF" offset="0%"></stop>
            <stop stop-color="#7A5BF5" offset="100%"></stop>
        </linearGradient>
        <linearGradient x1="3.16065825e-15%" y1="49.9990115%" x2="100.000682%" y2="49.9990115%" id="linearGradient-14">
            <stop stop-color="#FFFFFF" offset="0%"></stop>
            <stop stop-color="#FFFFFF" stop-opacity="0" offset="100%"></stop>
        </linearGradient>
        <linearGradient x1="-0.000695300086%" y1="49.9960972%" x2="100%" y2="49.9960972%" id="linearGradient-15">
            <stop stop-color="#FFFFFF" offset="0%"></stop>
            <stop stop-color="#FFFFFF" stop-opacity="0" offset="100%"></stop>
        </linearGradient>
        <linearGradient x1="148.400764%" y1="57.0170618%" x2="-19.3388584%" y2="50.7919968%" id="linearGradient-16">
            <stop stop-color="#FFFFFF" stop-opacity="0" offset="0%"></stop>
            <stop stop-color="#FFFFFF" offset="100%"></stop>
        </linearGradient>
        <linearGradient x1="112.068858%" y1="26.4655834%" x2="6.92677588%" y2="66.039845%" id="linearGradient-17">
            <stop stop-color="#FFFFFF" stop-opacity="0" offset="0%"></stop>
            <stop stop-color="#FFFFFF" offset="100%"></stop>
        </linearGradient>
        <linearGradient x1="-0.0146733253%" y1="50.0485428%" x2="99.9312148%" y2="50.0485428%" id="linearGradient-18">
            <stop stop-color="#4F68CA" offset="0%"></stop>
            <stop stop-color="#5ACEED" offset="100%"></stop>
        </linearGradient>
        <linearGradient x1="0.0216181266%" y1="50.0141015%" x2="99.9970766%" y2="50.0141015%" id="linearGradient-19">
            <stop stop-color="#F87B58" offset="0%"></stop>
            <stop stop-color="#F87B58" offset="0%"></stop>
            <stop stop-color="#F89453" offset="41%"></stop>
            <stop stop-color="#F8C548" offset="71%"></stop>
            <stop stop-color="#F89C51" offset="100%"></stop>
        </linearGradient>
        <linearGradient x1="-0.0107404362%" y1="50.0534045%" x2="99.9942754%" y2="50.0534045%" id="linearGradient-20">
            <stop stop-color="#E1A1ED" offset="0%"></stop>
            <stop stop-color="#7658F4" offset="100%"></stop>
        </linearGradient>
        <linearGradient x1="-0.0941362551%" y1="50.0256936%" x2="99.8893183%" y2="50.0256936%" id="linearGradient-21">
            <stop stop-color="#5ACEED" offset="0%"></stop>
            <stop stop-color="#4F68CA" offset="55%"></stop>
            <stop stop-color="#5282D3" offset="100%"></stop>
        </linearGradient>
        <linearGradient x1="50%" y1="100%" x2="50%" y2="0%" id="linearGradient-22">
            <stop stop-color="#0172FF" offset="0%"></stop>
            <stop stop-color="#0188FF" offset="26.5%"></stop>
            <stop stop-color="#01C0FF" offset="81.41%"></stop>
            <stop stop-color="#01D5FF" offset="100%"></stop>
        </linearGradient>
    </defs>
    <g id="Artboard" stroke="none" stroke-width="1" fill="none" fill-rule="evenodd">
        <g id="bg7" transform="translate(31.000000, 0.000000)" fill-rule="nonzero">
            <g id="bg">
                <path d="M38.8951972,351.314364 C38.8951972,351.314364 -4.91550296,418.942283 99.378925,427.149306 C203.673353,435.356329 231.649477,425.09435 249.455375,423.045795 C267.261272,420.99724 319.066065,383.034957 406.821874,430.22854 C466.249536,462.192399 529.26142,425.107153 558.511223,402.521835 C587.761026,379.936517 605.566923,355.32185 591.575661,351.218338 C577.584398,347.114827 38.8951972,351.314364 38.8951972,351.314364 Z" id="Path" fill="#F5F5FC"></path>
                <path d="M37.090286,353.33091 C37.090286,353.33091 -25.1279487,261.536445 11.616716,225.936402 C48.7966075,189.913844 -0.166410256,144.826431 16.2634024,92.3002023 C30.1650592,47.8465607 115.021489,-25.0691908 192.863087,8.62953757 C300.344911,55.1637428 299.83928,65.4001156 365.974556,53.9474133 C432.109832,42.494711 508.805759,-19.8453757 546.056055,58.5950723 C568.131016,105.078064 628.819556,115.276026 643.64927,158.532543 C658.478984,201.789061 636.141607,255.928526 623.891252,267.765332 C580.458176,309.76711 595.28789,355.116994 595.28789,355.116994 L37.090286,353.33091 Z" id="Path" fill-opacity="0.3" fill="#F8F8FF"></path>
                <ellipse id="Oval" fill="#FFFFFF" cx="333.639763" cy="123.931171" rx="18.5227416" ry="18.5266185"></ellipse>
                <ellipse id="Oval" fill="#FFFFFF" cx="353.781805" cy="126.184581" rx="13.6840434" ry="13.6869075"></ellipse>
                <ellipse id="Oval" fill="#FFFFFF" cx="486.455582" cy="116.95328" rx="16.954645" ry="16.9581936"></ellipse>
                <ellipse id="Oval" fill="#FFFFFF" cx="467.504014" cy="118.732962" rx="12.525572" ry="12.5281936"></ellipse>
                <ellipse id="Oval" fill="#FFFFFF" cx="508.728955" cy="120.333396" rx="12.525572" ry="12.5281936"></ellipse>
                <ellipse id="Oval" fill="#FFFFFF" cx="75.9150789" cy="126.683916" rx="16.954645" ry="16.9581936"></ellipse>
                <ellipse id="Oval" fill="#FFFFFF" cx="57.4755424" cy="124.622558" rx="12.525572" ry="12.5281936"></ellipse>
            </g>
            <g id="build_1" transform="translate(71.684418, 70.419075)">
                <g id="Layer_2">
                    <polygon id="Path" fill="#E9EDFA" points="9.45338264 23.9104769 10.0934221 281.144957 214.266006 281.144957 213.625966 24.5506503"></polygon>
                    <polygon id="Path" fill="#BAC6F2" points="0.492830375 0.224060694 220.026361 0.864234104 220.6664 24.5506503 0.492830375 24.5506503"></polygon>
                    <rect id="Rectangle" fill="#BAC6F2" x="0.492830375" y="71.9234827" width="219.533531" height="7.04190751"></rect>
                    <rect id="Rectangle" fill="#BAC6F2" x="10.0934221" y="78.3252168" width="202.892505" height="7.04190751"></rect>
                    <rect id="Rectangle" fill="#BAC6F2" x="9.45338264" y="22.6301301" width="202.892505" height="7.04190751"></rect>
                    <rect id="Rectangle" fill="#BAC6F2" x="1.77290927" y="280.620014" width="219.533531" height="7.04190751"></rect>
                    <polygon id="Path" fill="#BAC6F2" points="29.934645 37.9942919 22.894211 45.6763728 22.894211 56.5593208 29.2946055 62.9610549 193.784744 63.6012283 200.185138 57.8396676 200.185138 45.6763728 192.504665 37.9942919"></polygon>
                </g>
                <g id="details" transform="translate(8.960552, 87.063584)" fill="#B1C1F2">
                    <polygon id="Path" points="0.492830375 14.3078757 13.2936193 14.3078757 13.2936193 22.6301301 1.13286982 22.6301301"></polygon>
                    <polygon id="Path" points="0.492830375 97.5304191 8.17330375 97.5304191 8.17330375 105.852673 1.13286982 105.852673"></polygon>
                    <rect id="Rectangle" x="69.6170907" y="85.3671243" width="20.4812623" height="7.68208092"></rect>
                    <rect id="Rectangle" x="57.4563412" y="98.1705925" width="20.4812623" height="7.68208092"></rect>
                    <rect id="Rectangle" x="47.5677318" y="51.0026156" width="20.4812623" height="7.68208092"></rect>
                    <rect id="Rectangle" x="94.5786292" y="98.8107659" width="20.4812623" height="7.68208092"></rect>
                    <rect id="Rectangle" x="58.3075937" y="6.76663295" width="20.4812623" height="7.68208092"></rect>
                    <rect id="Rectangle" x="173.303481" y="94.329552" width="20.4812623" height="7.68208092"></rect>
                    <rect id="Rectangle" x="176.503679" y="0.224060694" width="20.4812623" height="7.68208092"></rect>
                </g>
                <g id="door" transform="translate(160.649901, 206.776012)">
                    <rect id="Rectangle" fill="#BAC6F2" x="0.55683432" y="0.21765896" width="41.5577613" height="75.6428902" rx="3.43"></rect>
                    <rect id="Rectangle" fill="#FFFFFF" x="4.53787968" y="8.73836705" width="33.6788757" height="12.1248844" rx="3.43"></rect>
                </g>
                <g id="window" transform="translate(21.121302, 97.306358)">
                    <path d="M0.204812623,29.7168497 L4.38427022,29.7168497 L51.0559467,29.6720376 C51.0559467,29.6720376 53.6161045,15.5882225 43.3754734,7.26596821 C33.1348422,-1.05628613 22.5293886,-1.05628613 14.8489152,2.78475434 C7.16844181,6.6257948 -0.0832051282,12.3873555 0.204812623,29.7168497 Z" id="Path" fill="#BAC6F2"></path>
                    <polyline id="Path" fill="#BAC6F2" points="4.37786982 29.7168497 4.02584813 63.8444942 47.458925 63.8444942 47.458925 28.8526156 3.68022682 28.1484249 4.37786982 29.7168497"></polyline>
                    <polygon id="Path" fill="#BAC6F2" points="4.02584813 63.8444942 1.17127219 63.6396387 1.17127219 69.4140029 50.2686982 69.4140029 50.0254832 63.6396387"></polygon>
                    <rect id="Rectangle" fill="#FFFFFF" x="9.43418146" y="31.6245665" width="15.1625345" height="13.9621821"></rect>
                    <rect id="Rectangle" fill="#FFFFFF" x="27.6817061" y="31.4645231" width="14.4904931" height="13.9621821"></rect>
                    <rect id="Rectangle" fill="#FFFFFF" x="27.6049014" y="49.0372832" width="14.7721105" height="13.9621821"></rect>
                    <rect id="Rectangle" fill="#FFFFFF" x="9.57499014" y="49.0308815" width="15.1625345" height="13.9621821"></rect>
                    <polyline id="Path" fill="#B1C1F2" points="6.32999014 8.91761561 4.55068047 29.8128757 13.2296154 29.5311994 14.9961243 2.75274566 9.5045858 5.97281792 6.99563116 8.21342486"></polyline>
                    <polyline id="Path" fill="#B1C1F2" points="45.6668146 9.35293353 47.2989152 29.8192775 39.3496252 29.5440029 37.7943294 3.54015896 42.6970316 6.73462428 45.0587771 8.66794798"></polyline>
                    <polyline id="Path" fill="#B1C1F2" points="17.7738955 8.50790462 16.5898225 29.614422 24.1614892 29.7424566 25.8575937 0.345693642 22.5805917 0.435317919 18.6251479 1.17791908"></polyline>
                    <polyline id="Path" fill="#B1C1F2" points="35.5669921 8.42468208 36.635858 29.5311994 29.8258383 29.6592341 28.3857495 0.460924855 31.9571696 1.20992775 34.9397535 2.16378613"></polyline>
                </g>
                <g id="window_copy" transform="translate(85.765286, 97.946532)">
                    <path d="M0.403224852,29.5247977 L4.58268245,29.5247977 L51.254359,29.4799855 C51.254359,29.4799855 53.8145168,15.3961705 43.5738856,7.07391618 C33.3332544,-1.24833815 22.7278008,-1.24833815 15.0473274,2.59270231 C7.36685404,6.43374277 0.121607495,12.2145087 0.403224852,29.5247977 Z" id="Path" fill="#BAC6F2"></path>
                    <polyline id="Path" fill="#BAC6F2" points="4.58268245 29.518396 4.23066075 63.6524422 47.6573373 63.6524422 47.6573373 28.6541618 3.87863905 27.9499711 4.58268245 29.518396"></polyline>
                    <polygon id="Path" fill="#BAC6F2" points="4.23066075 63.6524422 1.37608481 63.441185 1.37608481 69.2219509 50.4671105 69.2219509 50.2302959 63.441185"></polygon>
                    <rect id="Rectangle" fill="#FFFFFF" x="9.63899408" y="31.4261127" width="15.1625345" height="13.9621821"></rect>
                    <rect id="Rectangle" fill="#FFFFFF" x="27.8801183" y="31.2660694" width="14.4904931" height="13.9621821"></rect>
                    <rect id="Rectangle" fill="#FFFFFF" x="27.8033136" y="48.8388295" width="14.7721105" height="13.9621821"></rect>
                    <rect id="Rectangle" fill="#FFFFFF" x="9.77980276" y="48.8324277" width="15.1625345" height="13.9621821"></rect>
                    <polyline id="Path" fill="#B1C1F2" points="6.52840237 8.71916185 4.7490927 29.614422 13.4280276 29.3391474 15.1945365 2.56069364 9.70939842 5.7807659 7.19404339 8.02137283"></polyline>
                    <polyline id="Path" fill="#B1C1F2" points="45.8652268 9.15447977 47.4973274 29.6272254 39.5480375 29.3519509 37.9927416 3.3417052 42.8954438 6.53617052 45.2571893 8.46949422"></polyline>
                    <polyline id="Path" fill="#B1C1F2" points="17.9723077 8.30945087 16.7882347 29.4159682 24.3599014 29.5440029 26.0560059 0.147239884 22.7790039 0.236864162 18.8235602 0.985867052"></polyline>
                    <polyline id="Path" fill="#B1C1F2" points="35.7718047 8.23263006 36.8342702 29.3327457 30.0306509 29.4607803 28.5841617 0.268872832 32.1619822 1.01147399 35.1381657 1.96533237"></polyline>
                </g>
                <g id="window_copy_2" transform="translate(149.769231, 97.946532)">
                    <path d="M0.358422091,29.5247977 L4.53787968,29.5247977 L51.2095562,29.4799855 C51.2095562,29.4799855 53.769714,15.3961705 43.5290828,7.07391618 C33.2884517,-1.24833815 22.682998,-1.24833815 15.0025247,2.59270231 C7.32205128,6.43374277 0.0704043393,12.2145087 0.358422091,29.5247977 Z" id="Path" fill="#BAC6F2"></path>
                    <polyline id="Path" fill="#BAC6F2" points="4.53147929 29.518396 4.17945759 63.6524422 47.6125345 63.6524422 47.6125345 28.6541618 3.8274359 27.9499711 4.53147929 29.518396"></polyline>
                    <polygon id="Path" fill="#BAC6F2" points="4.17945759 63.6524422 1.32488166 63.441185 1.32488166 69.2219509 50.4223077 69.2219509 50.1790927 63.441185"></polygon>
                    <rect id="Rectangle" fill="#FFFFFF" x="9.58779093" y="31.4261127" width="15.1625345" height="13.9621821"></rect>
                    <rect id="Rectangle" fill="#FFFFFF" x="27.8289152" y="31.2660694" width="14.4904931" height="13.9621821"></rect>
                    <rect id="Rectangle" fill="#FFFFFF" x="27.7585108" y="48.8388295" width="14.7721105" height="13.9621821"></rect>
                    <rect id="Rectangle" fill="#FFFFFF" x="9.72859961" y="48.8324277" width="15.1625345" height="13.9621821"></rect>
                    <polyline id="Path" fill="#B1C1F2" points="6.48359961 8.71916185 4.70428994 29.614422 13.3832249 29.3391474 15.1433333 2.56069364 9.65819527 5.7807659 7.14284024 8.02137283"></polyline>
                    <polyline id="Path" fill="#B1C1F2" points="45.8204241 9.15447977 47.4525247 29.6272254 39.4968343 29.3519509 37.9479389 3.3417052 42.850641 6.53617052 45.2123866 8.46949422"></polyline>
                    <polyline id="Path" fill="#B1C1F2" points="17.9275049 8.30945087 16.743432 29.4159682 24.3150986 29.5440029 26.0048028 0.147239884 22.7342012 0.236864162 18.7787574 0.985867052"></polyline>
                    <polyline id="Path" fill="#B1C1F2" points="35.7206016 8.23263006 36.7894675 29.3327457 29.9794477 29.4607803 28.539359 0.268872832 32.1107791 1.01147399 35.0869625 1.96533237"></polyline>
                </g>
                <g id="window_copy_3" transform="translate(20.481262, 194.612717)">
                    <path d="M0.992061144,30.0305347 L12.0583432,30.0305347 L135.585957,29.9857225 C135.585957,29.9857225 145.615375,14.4167052 118.509704,5.91520231 C91.4040335,-2.58630058 46.825286,-0.166445087 26.5168343,3.75781792 C6.20838264,7.68208092 0.236814596,12.3553468 0.992061144,30.0305347 Z" id="Path" fill="#BAC6F2"></path>
                    <polyline id="Path" fill="#BAC6F2" points="2.61136095 30.3442197 1.52969428 86.1225289 135.227535 86.1225289 135.227535 28.9358382 0.448027613 27.783526 2.61136095 30.3442197"></polyline>
                    <rect id="Rectangle" fill="#FFFFFF" x="9.09496055" y="31.0996243" width="117.79926" height="28.4044942"></rect>
                    <rect id="Rectangle" fill="#FFFFFF" x="50.6335207" y="64.0813584" width="33.9284911" height="13.9621821"></rect>
                    <rect id="Rectangle" fill="#FFFFFF" x="9.90141026" y="64.3246243" width="33.9284911" height="13.9621821"></rect>
                    <rect id="Rectangle" fill="#FFFFFF" x="91.8520611" y="64.3246243" width="33.9284911" height="13.9621821"></rect>
                    <polyline id="Path" fill="#B1C1F2" points="13.498432 8.16861272 11.0790828 28.3404769 22.6061933 28.0780058 24.6543195 3.63618497 17.895503 5.2558237 14.1576726 6.79223988"></polyline>
                    <polyline id="Path" fill="#B1C1F2" points="32.5204043 8.37346821 30.5810848 28.1484249 42.1465976 28.001185 44.2523274 1.20992775 38.6071795 1.87570809 33.5060651 2.34943642"></polyline>
                    <polyline id="Path" fill="#B1C1F2" points="118.637712 8.02137283 120.538629 28.193237 111.475671 27.9307659 109.869172 3.48894509 115.181499 5.10858382 118.11928 6.645"></polyline>
                    <polyline id="Path" fill="#B1C1F2" points="103.596785 8.22622832 105.209684 28.001185 95.5770907 27.8539451 93.829783 1.06268786 98.5276726 1.72846821 102.771134 2.20219653"></polyline>
                    <polyline id="Path" fill="#B1C1F2" points="85.9124951 8.07258671 87.5253945 27.8475434 77.8928008 27.7067052 76.1006903 0.281676301 80.6641716 0.505736994 85.0100394 0.729797688"></polyline>
                    <polyline id="Path" fill="#B1C1F2" points="64.9704043 8.80878613 66.5833037 28.5837428 56.9507101 28.4429046 55.1585996 1.02427746 59.9588955 0.85783237 64.4711736 0.761806358"></polyline>
                </g>
            </g>
            <g id="build_2" transform="translate(289.297830, 190.131503)">
                <polygon id="Path" fill="#E9EDFA" points="12.5063708 38.1159249 11.8983333 166.265838 228.404477 166.848396 228.404477 36.9252023"></polygon>
                <rect id="Rectangle" fill="#BAC6F2" x="10.7014596" y="160.299422" width="219.533531" height="7.04190751"></rect>
                <rect id="Rectangle" fill="#BAC6F2" x="0.537633136" y="37.9942919" width="240.104398" height="8.48869942"></rect>
                <path d="M4.33306706,39.3770665 C4.33306706,39.3770665 6.89322485,1.22273121 31.8547633,0.492933526 C52.4128304,-0.10882948 157.782525,0.409710983 194.079162,0.742601156 C215.456479,0.941054913 233.761607,16.7469364 236.366568,37.968685 C236.422038,38.4338776 236.473241,38.9033382 236.520178,39.3770665 L4.33306706,39.3770665 Z" id="Path" fill="#BAC6F2"></path>
                <g id="details_copy" transform="translate(14.080868, 48.653179)" fill="#B1C1F2">
                    <polygon id="Path" points="201.119596 47.116763 213.920385 47.116763 213.920385 55.4390173 201.759635 55.4390173"></polygon>
                    <polygon id="Path" points="206.399921 12.3553468 214.080394 12.3553468 214.080394 20.6776012 207.039961 20.6776012"></polygon>
                    <rect id="Rectangle" x="7.78928008" y="74.4841763" width="20.4812623" height="7.68208092"></rect>
                    <rect id="Rectangle" x="0.544033531" y="40.7406358" width="20.4812623" height="7.68208092"></rect>
                    <rect id="Rectangle" x="13.2680178" y="13.4116329" width="20.4812623" height="7.68208092"></rect>
                    <rect id="Rectangle" x="86.0981065" y="6.67700867" width="20.4812623" height="7.68208092"></rect>
                    <rect id="Rectangle" x="189.438876" y="32.2263295" width="20.4812623" height="7.68208092"></rect>
                    <rect id="Rectangle" x="178.359793" y="91.5511994" width="20.4812623" height="7.68208092"></rect>
                    <rect id="Rectangle" x="129.735996" y="0.537745665" width="20.4812623" height="7.68208092"></rect>
                </g>
                <g id="window_copy_4" transform="translate(51.203156, 74.260116)">
                    <path d="M0.608037475,29.8512861 L11.6743195,29.8512861 L135.201933,29.806474 C135.201933,29.806474 145.231351,14.2374566 118.12568,5.73595376 C91.0200099,-2.76554913 46.4412623,-0.345693642 26.1328107,3.57856936 C5.82435897,7.50283237 -0.147209073,12.1760983 0.608037475,29.8512861 Z" id="Path" fill="#BAC6F2"></path>
                    <polyline id="Path" fill="#BAC6F2" points="2.22733728 30.1649711 1.14567061 85.9432803 134.843511 85.9432803 134.843511 28.7565896 0.0640039448 27.6042775 2.22733728 30.1649711"></polyline>
                    <rect id="Rectangle" fill="#FFFFFF" x="50.249497" y="30.9203757" width="76.2607002" height="28.4044942"></rect>
                    <rect id="Rectangle" fill="#FFFFFF" x="50.249497" y="63.9021098" width="33.9284911" height="13.9621821"></rect>
                    <rect id="Rectangle" fill="#FFFFFF" x="9.51738659" y="31.4517197" width="33.9284911" height="46.6558382"></rect>
                    <rect id="Rectangle" fill="#FFFFFF" x="91.4744379" y="64.1453757" width="33.9284911" height="13.9621821"></rect>
                    <polyline id="Path" fill="#B1C1F2" points="13.1144083 7.98936416 10.7014596 28.1612283 22.22857 27.8987572 24.2702959 3.45693642 17.5178797 5.07657514 13.7800493 6.61299133"></polyline>
                    <polyline id="Path" fill="#B1C1F2" points="32.1363807 8.19421965 30.2034615 27.9691763 41.7689744 27.8219364 43.8683037 1.03067919 38.2295562 1.69645954 33.1284418 2.17018786"></polyline>
                    <polyline id="Path" fill="#B1C1F2" points="118.260089 7.84212428 120.154606 28.0139884 111.098047 27.7515173 109.491548 3.30969653 114.797475 4.92933526 117.735256 6.46575145"></polyline>
                    <polyline id="Path" fill="#B1C1F2" points="103.219162 8.04697977 104.825661 27.8219364 95.1930671 27.6746965 93.4457594 0.883439306 98.1436489 1.54921965 102.393511 2.02294798"></polyline>
                    <polyline id="Path" fill="#B1C1F2" points="85.5284714 7.89333815 87.1413708 27.6682948 77.5087771 27.5274566 75.7166667 0.10882948 80.2801479 0.326488439 84.6260158 0.550549133"></polyline>
                    <polyline id="Path" fill="#B1C1F2" points="64.5927811 8.63593931 66.1992801 28.4044942 56.5666864 28.2636561 54.7745759 0.845028902 59.5748718 0.678583815 64.0871499 0.588959538"></polyline>
                </g>
            </g>
            <g id="Layer_13" transform="translate(529.952663, 304.082370)">
                <rect id="Rectangle" fill="#FFFFFF" x="6.20198225" y="45.0554046" width="5.97156805" height="12.2017052" rx="2.98578402"></rect>
                <rect id="Rectangle" fill="#FFFFFF" x="25.4031657" y="45.0554046" width="5.97156805" height="12.2017052" rx="2.98578402"></rect>
                <path d="M3.87223866,0.697789017 C3.87223866,0.697789017 -0.761646943,48.8068208 0.121607495,49.4661994 C1.00486193,50.125578 36.3030375,50.5672977 37.1862919,49.9079191 C38.0695464,49.2485405 34.5365286,1.13950867 33.877288,0.915447977 C33.2180473,0.691387283 4.97310651,0.0384104046 3.87223866,0.697789017 Z" id="Path" fill="#BAC6F2"></path>
                <rect id="Rectangle" fill="#FFFFFF" x="8.49972387" y="12.8354769" width="21.8445464" height="2.42625723" rx="1.21312861"></rect>
                <rect id="Rectangle" fill="#FFFFFF" x="5.85636095" y="20.5559682" width="26.6960454" height="2.42625723" rx="1.21312861"></rect>
            </g>
        </g>
        <g id="Connect" transform="translate(95.000000, 89.000000)">
            <use id="Oval" stroke="url(#linearGradient-1)" mask="url(#mask-3)" stroke-width="10" stroke-dasharray="14,14" xlink:href="#path-2"></use>
            <rect id="Rectangle" fill="#F5F5FC" x="0" y="265" width="27" height="66"></rect>
            <rect id="Rectangle" fill="#F5F5FC" transform="translate(416.180110, 325.061429) rotate(33.000000) translate(-416.180110, -325.061429) " x="402.68011" y="302.561429" width="27" height="45"></rect>
        </g>
        <g id="pin" transform="translate(447.000000, 205.000000)" fill-rule="nonzero">
            <path d="M90.5979952,223.085398 L47.9520836,122.951382 C30.8179108,82.7100285 60.2515575,38 103.87988,38 L103.87988,38 C146.247313,38 174.830053,81.4454554 158.190953,120.492058 L114.500746,223.085398 C112.456606,227.885764 107.753981,231 102.549371,231 C97.3447606,231 92.6421354,227.885764 90.5979952,223.085398 Z" id="Path" fill="url(#linearGradient-4)"></path>
            <circle id="Oval" fill="#FFFFFF" cx="103" cy="99" r="33"></circle>
            <rect id="Rectangle" fill="#EFEFEF" x="0" y="124" width="25" height="8"></rect>
            <rect id="Rectangle" fill="#EFEFEF" x="185" y="124" width="25" height="8"></rect>
            <polygon id="Rectangle" fill="#EFEFEF" transform="translate(169.137056, 190.748219) rotate(45.000000) translate(-169.137056, -190.748219) " points="156.848336 186.859498 181.428274 186.851614 181.425777 194.636939 156.845838 194.644824"></polygon>
            <polygon id="Rectangle" fill="#EFEFEF" transform="translate(39.590678, 193.277682) rotate(-45.000000) translate(-39.590678, -193.277682) " points="27.2994601 189.381077 51.8793984 189.388962 51.8818957 197.174287 27.3019574 197.166403"></polygon>
            <polygon id="Rectangle" fill="#EFEFEF" transform="translate(25.332974, 55.702906) rotate(36.069410) translate(-25.332974, -55.702906) " points="13.0172024 51.8062208 37.6511279 51.7987006 37.648746 59.5995906 13.0148205 59.6071109"></polygon>
            <polygon id="Rectangle" fill="#EFEFEF" transform="translate(104.500000, 13.000000) rotate(90.000000) translate(-104.500000, -13.000000) " points="92 9 117 9 117 17 92 17"></polygon>
            <polygon id="Rectangle" fill="#EFEFEF" transform="translate(176.420814, 55.015199) rotate(150.000000) translate(-176.420814, -55.015199) " points="164.127792 51.1197469 188.711673 51.1265751 188.713835 58.910652 164.129955 58.9038238"></polygon>
        </g>
        <g id="woman-check-phone" transform="translate(466.000000, 79.000000)" fill-rule="nonzero">
            <g id="Group" transform="translate(25.000000, 325.000000)" fill="#4B44BE">
                <path d="M13.1035088,0.133333333 L4.1877193,2.13333333 C4.1877193,2.13333333 2.02631579,9.06666667 1.01315789,12.8 C0.945614035,13 0.742982456,13.6666667 0.607894737,14.0666667 C0.472807018,14.7333333 0.405263158,15.3333333 0.405263158,16 C0.607894737,19.3333333 1.89122807,22.2 4.86315789,23.6666667 C8.17280702,25.3333333 10.7394737,26.8666667 14.2517544,23.6666667 C17.7640351,20.4666667 18.3719298,18.4666667 16.8859649,12.9333333 C15.4,7.4 13.1035088,0.2 13.1035088,0.133333333" id="Path"></path>
                <path d="M64.8421053,11.6666667 C58.8307018,9.8 56.2640351,2.46666667 56.2640351,2.46666667 L44.1736842,1.86666667 C44.1736842,1.86666667 43.9035088,9.33333333 43.5657895,13.4 C43.1605263,18.8 44.1736842,21.2 47.8210526,20.8666667 C52.6842105,20.4666667 72.5421053,22.2 75.6491228,20.2666667 C79.8368421,17.8 70.5157895,13.4 64.8421053,11.6666667" id="Path"></path>
            </g>
            <path d="M20.2733541,154.067678 C20.2733541,154.067678 15.7672118,160.294049 14.3548389,177.07818 C12.9424659,193.86231 16.1034911,225.738623 17.5831199,231.897316 C19.0627487,238.056009 24.981264,295.649942 26.4608928,299.845974 C27.9405216,304.042007 29.9581972,326.984831 29.9581972,326.984831 L39.5085286,327.255543 C39.5085286,327.255543 42.3332745,297.34189 42.3332745,289.423571 C42.3332745,281.505251 46.30137,206.585764 46.0323465,201.103851 C45.7633231,195.621937 47.0411844,197.381564 47.0411844,197.381564 C47.0411844,197.381564 55.3809104,224.18203 57.869377,228.648775 C60.3578436,233.115519 64.7967301,241.845974 64.7967301,241.845974 C64.7967301,241.845974 65.8055679,269.932322 67.0161733,286.175029 C68.2267787,302.417736 69.5046399,328 69.5046399,328 L82.3505082,327.729288 C82.3505082,327.729288 85.3097658,284.956826 85.3097658,275.955659 C85.3097658,266.954492 88,245.365228 88,242.861144 C88,240.35706 79.660274,196.637106 79.660274,196.637106 L73.8090146,154 L20.2733541,154.067678 Z" id="Path" fill="url(#linearGradient-5)"></path>
            <path d="M35.4288832,12.2639909 C31.0619783,13.8932973 25.4857766,35.8210456 25.4857766,35.8210456 L25.4185935,35.7531578 L23,38.1971174 L24.0077473,42.8134854 L28.2402859,115.113956 L50.1419936,110.361812 L69.289192,89.859707 L81.2477932,95.5622793 C81.2477932,95.5622793 82.1883573,121.834845 82.3227236,123.260488 C82.4570899,124.686131 84.4725845,164.400474 84.4725845,166.980209 C84.5397676,169.763607 96.2296362,182.254956 98.1779476,180.897201 C103.955699,176.823935 94.3485079,169.288393 92.0642807,167.455423 C90.7206177,166.369219 87.8317421,129.438274 87.6301926,125.093457 C87.4286432,120.74864 94.2813247,109.682935 82.3899068,95.087065 C73.7232801,84.4286858 69.0204594,57.0699162 61.764679,25.9773196 C57.9352393,9.82003136 55.6510121,5 51.8887555,5 C48.4624148,5 43.7595941,9.1411537 35.4288832,12.2639909" id="Path" fill="url(#linearGradient-6)"></path>
            <path d="M31.6410327,73.8094521 C31.5736677,74.0120254 23.2877827,77.9284427 19.717442,82.317531 C16.1471013,86.7066194 13.2504098,93.0539164 13.2504098,93.0539164 C13.2504098,93.0539164 7.99594613,105.478413 4.3582405,114.661736 C2.40465786,119.59102 -3.99500944,139.780826 3.68459132,140.523595 C10.9600026,141.198839 27.0602182,124.047632 29.5527202,120.80646 L32.3146819,114.594211 C32.5167766,113.783918 28.003327,105.410888 28.1380569,104.668119 C28.2727867,103.45268 38.7817141,97.3079558 40.3984721,100.954275 C40.9373915,102.169715 42.3520548,105.680986 42.7562443,106.761377 C43.7667181,109.39483 28.4748815,114.526687 28.4748815,116.890042 C28.4748815,119.793593 27.194948,130.529978 25.1066355,135.796884 C23.018323,141.06379 19.8521719,153.555811 19.8521719,153.555811 L73.6093771,153.69086 C73.6093771,153.69086 71.7905243,129.719685 72.5315384,121.751802 C72.5315384,121.751802 74.8219457,95.6198449 76.1692441,93.0539164 C77.5165424,90.4879878 79.8069497,125.330597 79.4701251,132.488187 C79.2006654,137.484995 83.714115,167.465845 84.9940484,168.546236 C87.0823609,170.166822 92,166.925649 92,166.925649 C92,166.925649 91.7979052,134.041249 91.5958105,128.57177 C91.3937157,123.10229 91.7305403,78.8737848 84.522494,70.9059014 C77.3144477,62.9380179 75.360865,63.1405912 69.3653872,65.2338487 C63.3699095,67.3271063 60.405853,69.3528393 52.2546978,70.7033281 C47.2696938,71.5811457 42.0825951,70.9059014 37.4344157,68.8801683 C38.7143491,64.2209822 36.0197524,72.1213412 36.356577,69.9605593" id="Path" fill="url(#linearGradient-7)"></path>
            <path d="M39.4854894,0.270365531 C39.4854894,0.270365531 28.7151753,0.675913828 25.6669732,11.1525782 C22.6187711,21.6292425 22.1446063,36.364164 22.0768685,38.662271 C21.9413928,41.0955608 23.2284115,57.5878582 21.873655,62.1840722 C20.6543742,66.2395552 17.1997451,73.7421987 15.0998726,78.9467352 C14.2870187,80.9744766 13.6773782,83.1374009 13.2709513,85.3003251 L13,87.0577011 C13.5419026,88.8826684 15.5062995,89.9641306 17.4029586,89.3558081 C17.5384342,89.2882167 17.6739099,89.2882167 17.7416477,89.2206253 C18.8254529,88.7474857 19.8415203,88.2067546 20.8575876,87.5984322 C24.1090032,85.6382821 28.2410105,80.4337456 31.4924261,78.8115524 C34.9470552,77.1217678 38.875849,69.2811674 39.4177516,68.672845 C39.9596542,68.0645225 39.7564407,66.1043724 39.8241785,64.2118137 C40.1628676,54.4110632 38.3339464,45.4214093 36.0308603,40.6900125 C33.7277743,35.9586157 28.444224,26.6985962 32.1020665,21.358877 C35.759909,16.0191577 43.4142832,11.7609006 43.7529723,10.4766643 C44.0916615,9.19242807 44.2948749,15.6136094 48.3591444,17.9117165 C52.4234139,20.2098235 58.1133911,26.3606393 58.1133911,27.712467 C58.1133911,29.0642946 59.4681476,33.4577345 55.6070916,41.0955608 C51.7460356,48.733387 48.6978335,58.4665462 54.0491217,65.7664155 C59.4004098,73.0662848 72.8802369,83.2049923 73.8285664,85.5030993 C74.776896,87.8012063 73.8285664,98.0075051 73.4898773,103.752773 C73.1511882,109.49804 84.3956671,93.9520221 83.9892401,86.4493786 C83.5828132,78.9467352 84.9375697,75.7023488 77.2831955,64.2794051 C69.6288213,52.8564614 64.6162223,33.1197776 64.4130088,28.3207894 C64.2097954,23.5218012 61.9067093,10.2738902 57.3005373,6.42118137 C53.3717434,3.17679499 52.4911517,0 44.2948749,0 C42.6691671,0 41.0434594,0.135182766 39.4854894,0.270365531" id="Path" fill="url(#linearGradient-8)"></path>
            <g id="Group" transform="translate(12.000000, 47.000000)">
                <g transform="translate(0.000000, 39.273543)" id="Path">
                    <g opacity="0.07" fill="#000000">
                        <g>
                            <path d="M23.575,13.9488789 C21.935,14.626009 20.3633333,15.370852 18.86,16.2511211 L17.22,17.0636771 C17.22,17.0636771 -0.136666667,35.0076233 0.615,34.0596413 C3.96333333,29.929148 14.35,7.99013453 17.835,2.91165919 C21.525,-2.36995516 23.575,-0.270852018 27.6066667,13.7457399"></path>
                        </g>
                    </g>
                    <g opacity="0.07" transform="translate(1.366667, 27.762332)" fill="#000000">
                        <path d="M21.3883333,212.009417 C21.4566667,212.212556 21.4566667,212.415695 21.4566667,212.618834 C21.525,214.10852 21.4566667,217.832735 19.8166667,220.202691 C17.7666667,223.317489 22.6183333,230.156502 22.6183333,231.849327 C22.6183333,233.542152 20.3633333,235.099552 18.7916667,234.625561 C17.22,234.15157 10.66,230.495067 13.2566667,222.640359 C14.2816667,219.457848 14.8966667,216.681614 15.5116667,214.921076 C15.8533333,214.040807 16.1266667,213.160538 16.4,212.280269 C16.4683333,211.873991 16.4683333,211.467713 16.4683333,211.061435 C16.4,210.519731 16.4,209.910314 16.3316667,209.300897 C15.99,206.253812 3.00666667,111.252466 2.52833333,107.595964 C2.11833333,104.34574 0.205,84.2349776 0.41,72.4529148 C0.273333333,71.4372197 0.273333333,70.4215247 0.341666667,69.4735426 C0.341666667,69.2026906 0.478333333,68.0515695 0.41,67.5775785 C0.478333333,66.4941704 0.546666667,65.4107623 0.683333333,64.3273543 C0.478333333,63.4470852 0.615,63.4470852 0.683333333,62.0251121 C0.751666667,60.603139 0.683333333,59.790583 0.82,58.9103139 C2.11833333,50.9201794 5.05666667,41.8466368 6.49166667,39.2735426 L6.90166667,37.8515695 C6.90166667,37.8515695 10.1816667,25.7986547 11.275,23.5641256 C12.2316667,21.5327354 14.965,10.9017937 14.6916667,8.66726457 C14.555,7.44843049 18.9283333,2.70852018 18.9283333,2.70852018 L19.8166667,1.96367713 C20.2266667,1.89596413 20.705,1.96367713 21.115,2.09910314 C22.0716667,2.50538117 25.7616667,-0.677130045 26.3766667,1.35426009 C30.75,15.235426 32.5266667,21.1264574 24.805,29.3874439 C17.0833333,37.6484305 24.19,45.029148 24.3266667,50.8524664 C24.6683333,65.2076233 17.63,63.6502242 17.22,72.5883408 C16.81,81.5264574 18.7916667,87.9591928 18.9283333,92.6313901 C19.27,108.002242 19.065,111.049327 18.245,117.075785 C17.425,123.102242 13.2566667,134.54574 17.9033333,157.026457 C22.55,179.507175 21.8666667,181.538565 21.3883333,194.26861 C20.91,206.998655 21.3883333,212.009417 21.3883333,212.009417"></path>
                    </g>
                    <path d="M15.58,7.5161435 L15.7166667,7.44843049 C16.2633333,7.17757848 19.475,5.55246637 21.73,4.67219731 C24.2583333,3.65650224 27.3333333,12.1883408 28.085,13.8811659 C28.1533333,14.0165919 28.1533333,14.0165919 27.6066667,14.0843049 C25.7616667,14.2874439 23.9166667,14.626009 22.14,15.1 C19.5433333,15.709417 16.605,17.7408072 16.4683333,17.8085202 C16.3316667,17.8762332 15.58,16.2511211 14.0766667,12.4591928 C13.735,11.5789238 12.9833333,9.27668161 13.6666667,8.73497758 L15.58,7.5161435 Z" fill="#EFEFEF"></path>
                </g>
                <path d="M35.1916667,1.4896861 C36.8316667,2.09910314 38.745,1.69282511 39.975,0.406278027 C42.1616667,-1.76053812 39.155,5.75560538 39.6333333,7.44843049 C40.1116667,9.14125561 35.1916667,1.4896861 35.1916667,1.4896861 Z" id="Path" fill="#000000" opacity="0.07"></path>
                <path d="M20.3633333,66.6295964 C20.3633333,66.6295964 30.6816667,59.926009 30.8183333,60.196861 C31.0916667,60.806278 31.98,63.2439462 31.98,63.2439462 C31.98,63.2439462 32.8,64.8013453 32.5266667,65.2753363 C32.2533333,65.7493274 22.4816667,69.8798206 22.4816667,69.8798206 C22.0716667,69.8121076 21.73,69.6089686 21.5933333,69.2704036 C21.115,68.4578475 20.705,67.5775785 20.3633333,66.6295964 Z" id="Path" fill="#EFEFEF"></path>
            </g>
        </g>
        <g id="motorcycle" transform="translate(12.000000, 233.000000)" fill-rule="nonzero">
            <ellipse id="Oval" fill="url(#linearGradient-9)" transform="translate(219.985107, 14.945300) rotate(-51.470000) translate(-219.985107, -14.945300) " cx="219.985107" cy="14.9453001" rx="10.7502592" ry="2.92823965"></ellipse>
            <path d="M226.391903,6.34535532 L193.248583,6 C193.598381,13.7826551 195.794332,24.4838059 197.276113,33.8910903 C199.2583,46.4795349 196.304453,50.8718709 196.790283,57.7887057 C196.790283,57.7887057 198.981377,70.275003 199.268016,74.6965239 C200.390283,92.1004864 202.450202,103.317238 201.153036,114.495077 C201.094737,115.57492 201.109312,117.301697 199.919028,118.527465 C197.9417,120.560683 193.253441,122.632815 182.390283,122.773876 C160.663968,123.065725 105.201619,131.305612 109.394332,97.3586428 C113.587045,63.411674 132.019433,49.8941749 132.019433,49.8941749 L84.9425101,48.921343 C84.9425101,48.921343 89.4072874,71.0046269 56.0647773,77.2648001 C22.7222672,83.5249733 0.753036437,110.866414 0,129 L240,129 C240,129 231.255061,75.9417487 212.992713,55.4976866 C194.730364,35.0536244 226.391903,6.34535532 226.391903,6.34535532 Z" id="Path" fill="url(#linearGradient-10)"></path>
            <circle id="Oval" fill="url(#linearGradient-11)" cx="56" cy="123" r="34"></circle>
            <ellipse id="Oval" fill="#FFFFFF" cx="56" cy="123.5" rx="18" ry="18.5"></ellipse>
            <circle id="Oval" fill="url(#linearGradient-12)" cx="247" cy="123" r="34"></circle>
            <ellipse id="Oval" fill="#FFFFFF" cx="247" cy="123.5" rx="18" ry="18.5"></ellipse>
            <path d="M65,54 L140.675699,54 C140.675699,54 142.550515,41.5429096 137.28456,41.1670491 C132.018605,40.7911886 81.0885345,41.1670491 81.0885345,41.1670491 C81.0885345,41.1670491 70.2465772,41.9187701 65,54 Z" id="Path" fill="url(#linearGradient-13)"></path>
            <circle id="Oval" fill="#FFFFFF" cx="193" cy="6" r="6"></circle>
            <path d="M89.4173616,128.971071 L103.575191,129 C103.575191,129 117.112404,101.714996 101.417577,83.3353472 C97.0926508,78.2727471 90.7507189,75.620909 84.0596898,75.215901 C63.9429653,74.0201631 49.8627127,77.8966683 35.9957972,84.2321507 C24.4952353,89.6221396 14.6572946,97.9783641 7.50558919,108.431379 C0.368491459,119.101411 0,129 0,129 L0,129 L89.4173616,128.971071 Z" id="Path" fill="url(#linearGradient-14)"></path>
            <path d="M212.746719,126 L272,99.3157128 C272,99.3157128 257.926491,80.7644323 232.352943,91.1680257 C229.974231,92.2782294 227.710488,93.6206438 225.594534,95.1758069 C220.081351,99.442944 209.035454,109.55782 212.746719,126 Z" id="Path" fill="url(#linearGradient-15)"></path>
            <path d="M81.9988215,136 C81.9988215,136 82.4262615,144.351319 67,148 L81.9988215,136 Z" id="Path" fill="url(#linearGradient-16)"></path>
            <path d="M275.72715,125 C275.72715,125 278.702882,132.902352 265,141 L275.72715,125 Z" id="Path" fill="url(#linearGradient-17)"></path>
        </g>
        <g id="man-with-ipad" transform="translate(82.000000, 92.000000)" fill-rule="nonzero">
            <g id="Group" transform="translate(33.000000, 321.000000)" fill="#4B44BE">
                <path d="M15.8283582,0.526315789 L13.9477612,0.473684211 L4.17910448,0.578947368 C4.17910448,0.578947368 2.03731343,10.6842105 0.888059701,14.8947368 C0.835820896,15.1578947 0.574626866,15.8421053 0.470149254,16.3684211 C0.313432836,17.1052632 0.26119403,17.8421053 0.26119403,18.5789474 C0.470149254,22.4210526 1.88059701,25.6315789 5.2761194,27.3684211 C8.98507463,29.2631579 11.858209,31 15.8283582,27.3684211 C19.7985075,23.7368421 20.3208955,21.4210526 18.8059701,15.1052632 C17.2910448,8.78947368 16.7686567,0.736842105 15.8283582,0.526315789 Z" id="Path"></path>
                <path d="M56.7313433,13.1052632 L56.7313433,13.1052632 C49.9925373,10.9473684 45.5,1.73684211 45.5,1.73684211 L34.0074627,1.05263158 C34.0074627,1.05263158 33.380597,10.4210526 33.0671642,15.1578947 C32.6492537,21.4736842 33.6940299,24.2631579 37.8208955,23.9473684 C43.2537313,23.5263158 65.3507463,25.5263158 68.8507463,23.2631579 C73.3955224,20.3157895 63,15.1052632 56.7313433,13.1052632 Z" id="Path"></path>
            </g>
            <path d="M21,155.104669 L21,168.868693 L37.564717,320.639298 L49.2850356,320.639298 C49.2850356,320.639298 53.3480794,216.545597 53.3480794,212.934503 C53.3480794,209.32341 54.3898855,198.019116 54.3898855,198.019116 C54.3898855,198.019116 69.1314417,240.776559 69.3918933,244.335318 C69.6523448,247.894077 66.9957392,321.528988 66.9957392,321.528988 L78.7160579,322 C78.7160579,322 88.9778479,272.177374 88.9778479,267.467252 C88.9778479,262.757129 92.4678984,238.264494 91.9469953,233.554372 C91.4260923,228.844249 82.7270113,155.471012 82.7270113,155.471012 L64.7558561,155 L21,155.104669 Z" id="Path" fill="url(#linearGradient-18)"></path>
            <path d="M97.0525236,139.376309 L96.8952518,139.166801 C96.9476757,139.323932 97.0000997,139.428687 97.0525236,139.376309 M62.4002881,126.020145 L55.7948695,128.743755 L55.4279018,137.857373 L62.7148318,140.738114 C62.7148318,140.685737 70.6832733,140.423852 70.6832733,140.371475 C70.7356972,140.004835 73.8287107,140.109589 75.2441575,141 L99.9358413,132.514907 L100.827049,126.596293 C100.827049,126.596293 102.661887,134.033844 94.3789018,119.053989 L62.4002881,126.020145 Z M91.9149759,95.9556809 L91.3907363,92.9701853 L90.1325613,92.7606769 L91.9149759,95.9556809 M46.2537093,16.6043513 C43.2131198,17.8614021 41.745249,22.3134569 41.745249,22.3134569 C41.745249,22.3134569 40.2773782,21.4230459 40.2773782,23.9371475 C40.2773782,26.451249 41.5355532,32.1079774 42.4267605,33.5745367 C43.9994792,36.0362611 45.414926,38.5503626 46.673101,41.1692184 C47.878852,43.7880741 47.4594603,49.1305399 46.2012854,49.9161966 C44.9431104,50.7018533 22.5056568,70.8146656 22.5056568,70.8146656 L4,127.591459 L4,129.843674 L6.83089368,130.83884 L9.76663527,133.352941 C10.0287551,133.405318 13.750856,135.448026 14.2750956,135.814666 C17.2108372,137.281225 20.3562746,138.381144 23.554136,139.114424 C25.6510942,139.533441 34.9301346,139.323932 34.9301346,139.323932 L44.3140229,139.114424 L42.6888803,127.172442 L28.7965317,127.01531 L9.81905922,126.072522 L29.0586514,81.8662369 L89.7655936,92.7082998 C78.9662585,73.2240129 66.8563244,51.3303787 65.8078453,49.0257857 C64.916638,47.1402095 65.8602692,42.6357776 66.3845088,40.2788074 C66.8563244,38.1313457 67.9048036,35.5124899 68.9008587,34.7268332 C69.8969139,33.9411765 71.6793285,30.4842869 71.6793285,28.9653505 C71.6793285,27.4464142 72.0987201,21.5278002 70.8405451,22.7848509 C70.4735775,23.1514907 69.0057067,20.8992748 68.4814671,18.6470588 C67.6426838,15.3996777 65.3884536,13.0950846 62.7672558,11 C62.7672558,11 49.3991467,15.3996777 46.4109812,16.6567284" id="Shape" fill="url(#linearGradient-19)"></path>
            <path d="M22.7587154,57.8793947 C19.8381294,59.8749444 17.1261567,62.553182 16.1352436,66.0191366 C15.1443305,69.4850912 8.10363214,96.4775256 7.16487236,99.8909657 C4.87012623,108.240765 3.51413988,110.656431 0.802167185,120.476636 C-2.53564537,132.554962 5.13089284,134.392968 12.953891,136.17846 C21.0898091,138.016466 21.1419624,138.804183 23.0716353,138.804183 C23.3845552,138.804183 33.0329196,140.799733 33.3458396,135.285714 C33.5544528,131.81976 32.928613,126.305741 31.62478,126.463284 C28.6520407,126.8834 19.0558296,124.310191 18.5864497,123.995105 C17.9606098,123.574989 20.6725825,116.012906 22.2371822,111.339119 C23.3845552,107.873164 27.8175875,93.4842012 28.8085006,90.8059635 C29.3300338,89.3355585 26.3051412,104.774811 24.479775,119.898976 C24.4276216,120.476636 23.6974752,126.358255 23.9060884,126.358255 C26.0965279,126.358255 32.0941599,126.463284 33.9716794,126.673342 C42.4205174,127.671117 44.0372704,131.714731 43.5157372,134.970628 C42.5769774,140.64219 22.0285689,138.016466 22.1328755,138.751669 C22.1328755,138.751669 18.5864497,154.821095 20.5682759,155.81887 C22.2893355,156.711615 45.3411034,166.374277 50.2435156,168.264798 C50.7650488,168.474855 51.3908887,168.212283 51.599502,167.634624 C51.599502,167.634624 51.599502,167.634624 51.599502,167.582109 L54.7287012,158.549622 C54.7808545,158.444593 54.8851612,158.392078 54.9894678,158.444593 C55.0416211,158.444593 55.0937745,158.497107 55.0937745,158.549622 L58.0665138,168.422341 C58.1186671,168.684913 58.3272804,168.894971 58.5358937,169 L59.8397267,169 L85.4470074,163.433467 C85.4470074,163.433467 85.3427007,153.245661 85.2905474,140.222074 C85.2905474,138.909212 85.0819341,134.077882 84.1431743,134.970628 C83.2044145,135.863373 61.8215529,138.699154 59.4746534,137.70138 C54.5200879,135.600801 55.823921,130.401869 57.5449806,128.248776 C59.5268068,125.780596 84.7690142,124.572764 84.8733208,122.734757 C85.2905474,114.752559 84.6647075,93.7992879 84.247481,96.3199822 C83.6216411,100.258567 68.8622512,121.789497 68.8622512,125.518024 C68.8622512,129.246551 68.6014846,138.699154 68.6014846,138.699154 L92.852779,136.808634 C92.852779,136.808634 100.988697,133.972853 101.718844,129.246551 C102.44899,124.520249 101.562384,122.419671 101.249464,115.382733 C101.04085,110.919003 94.7824518,84.0841121 93.0092389,76.4695149 C92.7484723,75.3141967 92.5920123,74.1588785 92.4877057,73.0035603 C92.2790924,69.8526925 91.0274127,62.5006676 84.2996343,59.2972853 C75.9551029,55.306186 69.4359378,52.1553182 67.7670315,52.1553182 C66.2024319,52.1553182 61.9258595,61.6079217 59.6832667,64.2861593 C58.6923536,65.493992 58.9009669,66.0716511 57.5971339,67.8571429 C56.9191407,68.8024032 55.667461,68.9599466 54.7287012,68.329773 C54.5200879,68.1722296 54.363628,67.9621718 54.207168,67.7521139 C53.4770215,66.7018247 52.8511817,65.5465065 52.2774951,64.3911883 C51.286582,62.3956386 43.6200438,51 43.6200438,51 C43.6200438,51 25.6793014,55.8313307 22.7587154,57.8793947" id="Path" fill="url(#linearGradient-20)"></path>
            <path d="M62.2368431,10.4427177 C62.2368431,10.4427177 45.839113,16.6137395 44.6902275,17.5103837 C43.5413419,18.4070279 41.348015,21.7826296 41.348015,21.7826296 C41.348015,21.7826296 40.1991294,21.1497043 39.9380191,22.8902489 C39.9380191,22.8902489 38.2669128,19.4091597 38.0580245,17.4576399 C37.8491362,15.5061202 38.0580245,10.4954614 41.1913488,7.17260352 C44.324673,3.84974559 50.6435435,-0.527987864 54.5601988,0.0521936783 C58.4768541,0.632375221 60.1479603,1.10706921 62.6023976,3.58602671 C65.0568349,6.06498421 67.1457178,6.80339708 67.8768268,7.17260352 C68.6079357,7.54180995 71.4279275,9.59881724 71.8979262,13.4491129 C72.3679248,17.2994086 71.0623731,25 71.0623731,25 C71.0623731,25 71.4279275,21.9936047 70.2268199,22.9429927 C69.3912668,23.575918 68.1901592,20.8332417 67.8246047,19.1981846 C67.3546061,17.6158713 63.1246183,10.8646679 62.2368431,10.4427177 Z" id="Path" fill="url(#linearGradient-21)"></path>
            <g id="Group" opacity="0.07" transform="translate(57.000000, 40.000000)" fill="#000000">
                <g id="Path">
                    <path d="M11.1652174,12.4027778 C11.0608696,12.0861111 12.9391304,13.5111111 10.7478261,11.9277778 C7.66956522,9.65833333 9.13043478,0.369444444 9.13043478,0.369444444 C7.9826087,2.79722222 6,4.69722222 3.54782609,5.64722222 C-0.365217391,7.125 -1.56521739,6.01666667 4.48695652,9.55277778 C10.4347826,13.0361111 7.35652174,14.25 6.93913043,18.8416667"></path>
                </g>
            </g>
            <g id="Group" transform="translate(21.000000, 78.000000)">
                <g opacity="0.07" transform="translate(46.224806, 0.000000)" fill="#000000" id="Path">
                    <g>
                        <path d="M12.6728682,7.1851272 L20.7751938,38.1808219 C20.7751938,38.1808219 20.7232558,43.6876712 19.1131783,44.5268102 C17.5031008,45.3659491 12.4131783,45.890411 11.2186047,46.4148728 C10.024031,46.9393346 -2.38914729,49.5616438 0.831007752,45.1561644 C1.55813953,44.1596869 18.3860465,38.2332681 10.8550388,31.9921722 C3.32403101,25.7510763 4.6744186,17.097456 8.31007752,11.118591 C11.9457364,5.13972603 11.1666667,0.052446184 11.1666667,0.052446184 L12.6728682,7.1851272 Z"></path>
                    </g>
                </g>
                <g opacity="0.07" transform="translate(0.000000, 79.193738)" fill="#000000" id="Path">
                    <g>
                        <path d="M24.5667624,9.70254403 C24.5667624,9.70254403 17.5550388,47.2540117 21.1906977,62.2536204 C26.696124,85.0152642 18.7496124,115.801174 18.7496124,130.590998 C18.7496124,140.18865 22.4891473,166.726419 22.7488372,177.530333 C22.8007752,180.781996 25.1379845,187.075538 23.424031,188.544031 C22.6968992,189.173386 18.2302326,187.704892 15.7891473,186.551076 C14.4906977,185.921722 13.7635659,184.558121 13.9193798,183.194521 L15.3736434,176.796086 L17.4511628,168.299804 L2.90852713,30.8908023 C2.90852713,30.8908023 -1.76589147,0.314677104 0.882945736,0.208931184 C3.53178295,0.104892368 24.6186047,9.70254403 24.5667624,9.70254403"></path>
                    </g>
                </g>
                <path d="M17.9186047,38.3906067 L45.3937984,41.8520548 C45.9651163,42.0093933 46.3286822,42.5338552 46.2767442,43.1632094 L45.4976744,68.2324853 C45.4457364,69.0191781 44.9782946,70.0681018 44.2511628,69.858317 L16.9317829,64.5612524 C16.4124031,64.4039139 16.0488372,63.9318982 16.0488372,63.3549902 L15.9449612,60.6277886 L18.9573643,59.8410959 C19.7364341,59.6313112 20.4635659,59.2117417 21.0868217,58.739726 C21.2426357,58.6348337 21.3465116,58.5299413 21.4503876,58.3726027 L22.0736434,57.4285714 C22.2813953,57.1663405 22.3333333,56.7992172 22.2813953,56.4320939 C22.1775194,55.8551859 22.0217054,55.0684932 21.9178295,54.6489237 C21.8658915,54.4915851 21.8139535,54.3342466 21.7620155,54.2293542 L21.0868217,52.7608611 C20.7751938,52.0790607 20.255814,51.5545988 19.5806202,51.2399217 L19.1651163,51.030137 L16.2046512,49.4043053 L16.4643411,39.5968689 C16.4643411,38.9150685 17.0356589,38.3906067 17.7108527,38.3906067 C17.8147287,38.3906067 17.8666667,38.3906067 17.9186047,38.3906067 Z" id="Path" fill="#FFFFFF"></path>
            </g>
        </g>
        <g id="CLOUDWP" transform="translate(249.000000, 41.000000)" fill-rule="nonzero">
            <g id="cloud-(1)" fill="#FFFFFF">
                <path d="M137.747307,41.3491652 C135.602663,41.3491652 133.462314,41.5629651 131.360621,41.9891306 C129.775761,34.0613105 124.651809,27.2986286 117.45766,23.6382001 C110.264943,19.9777712 101.793743,19.8242369 94.4721759,23.2206442 C87.8464008,4.92854456 67.6798774,-4.51596456 49.4289306,2.12475063 C31.1779838,8.76546582 21.7547229,28.9788961 28.3804981,47.269561 C12.3930236,47.7760804 -0.235749602,61.0388572 0.0033394275,77.06812 C0.243860037,93.0988183 13.2649114,105.974172 29.2609761,106 L137.747307,106 C155.558731,106 170,91.5276032 170,73.6745826 C170,55.8215624 155.558731,41.3491652 137.747307,41.3491652 Z" id="Path"></path>
            </g>
            <g id="iconfinder_Social-media_FB-Messenger_4362963" transform="translate(49.000000, 31.000000)" fill="url(#linearGradient-22)">
                <path d="M30,0 C13.4,0 0,13.4 0,30 C0,35.9 1.7,41.4 4.7,46.1 L4.6,46.1 L0,60 L14,55.4 C18.6,58.3 24.1,60 30,60 C46.6,60 60,46.6 60,30 C60,13.4 46.6,0 30,0 Z M34,40 L24,30 L10,40 L24,19 L34,29 L50,20 L34,40 Z" id="Shape"></path>
            </g>
        </g>
    </g>
</svg>